<?xml version="1.0" encoding="utf-8"?>
<!-- Generator: Adobe Illustrator 26.3.1, SVG Export Plug-In . SVG Version: 6.00 Build 0)  -->
<svg version="1.1" id="Layer_1_xA0_Imagen_00000106145401931504820960000017122463299776131260_"
	 xmlns="http://www.w3.org/2000/svg" xmlns:xlink="http://www.w3.org/1999/xlink" x="0px" y="0px" viewBox="0 0 375 53.25"
	 style="enable-background:new 0 0 375 53.25;" xml:space="preserve">
<style type="text/css">
	.st0{fill:#FFFFFF;}
</style>
<g>
	<path class="st0" d="M331.59,44.7c-0.56-0.17-0.7-0.27-0.77-0.23c-0.99,0.5-1.98,1.01-2.96,1.54c-6.52,3.51-13.42,5.17-20.87,4.3
		c-10.64-1.24-17.97-9.97-16.44-20.8c7.2,0,14.57,0,21.94,0c-0.01-0.59-0.02-1.19-0.04-1.78c-7.39,0-14.79,0-22,0
		c-2.14-9.86,1.57-15.6,10.94-16.48c6.13-0.58,12.45-0.33,18.58,0.37c5.34,0.61,10.55,2.37,15.87,3.64
		c1.53-3.73-1.18-4.53-3.64-4.83c-11.86-1.44-23.72-2.82-35.62-3.91c-3.16-0.29-6.48,0.23-9.62,0.89c-1.29,0.27-3.25,1.86-3.25,2.86
		c-0.01,3.48-0.14,7.4,1.41,10.29c1.23,2.3,1.89,4.31,1.96,6.75c0.07,2.46,0.15,4.93,0.38,7.38c0.92,9.65,6.38,16.12,15.29,17.55
		c3.53,0.57,7.24,0.53,10.81,0.19C320.25,51.78,326.42,49.63,331.59,44.7z M32.23,29.34c0-5.41-0.23-10.84,0.08-16.24
		c0.2-3.49-1.37-5.42-4.45-5.54c-7.68-0.3-15.39-0.28-23.08-0.09C2.14,7.54,0.72,9.26,0.74,12.2c0.11,11.32,0.11,22.64,0,33.96
		c-0.03,2.72,1.14,4.6,3.63,4.68c8.06,0.25,16.13,0.25,24.19,0.04c2.45-0.06,3.81-1.75,3.72-4.56C32.1,40.67,32.23,35,32.23,29.34z
		 M166.61,50.99c2.98,1.27,4.09,0.17,4.86-2.11c1.41-4.19,3.04-8.3,4.64-12.59c5.6,0,11.08,0.1,16.55-0.05
		c2.13-0.06,3.08,0.72,3.77,2.62c1.25,3.47,2.86,6.81,4.12,10.28c0.86,2.38,2.22,2.99,4.42,2.04c0.08-0.25,0.18-0.39,0.14-0.48
		c-5.49-14.09-10.97-28.19-16.57-42.24c-0.3-0.74-1.68-1.53-2.51-1.48c-0.98,0.06-2.38,0.79-2.77,1.62c-1.51,3.23-2.7,6.6-4,9.93
		C175.06,29.27,170.87,40.03,166.61,50.99z M157.9,20.82c0-2.83-0.18-5.42,0.05-7.96c0.28-3.11-1.31-5.04-4.04-5.15
		c-7.92-0.32-15.87-0.33-23.8-0.12c-2.43,0.07-3.71,1.85-3.68,4.63c0.13,11.45,0.13,22.9,0,34.35c-0.03,2.66,1.19,4.25,3.49,4.31
		c8.06,0.21,16.14,0.26,24.19-0.09c1.31-0.06,3.32-2.28,3.61-3.77c0.57-2.95,0.17-6.08,0.17-9.22c-1.59,0-2.84,0-4.34,0
		c0,2.53-0.1,4.74,0.03,6.93c0.17,2.97-1.36,4.49-4.12,4.56c-4.85,0.12-9.71,0.08-14.55-0.12c-3.32-0.14-4.67-2.04-4.62-5.4
		c0.14-9.72,0.16-19.45-0.01-29.17c-0.06-3.69,1.87-5.34,5.07-5.5c4.72-0.24,9.46-0.14,14.19,0.03c2.81,0.1,4.22,1.69,4.04,4.62
		c-0.14,2.29-0.03,4.6-0.03,7.07C155.13,20.82,156.22,20.82,157.9,20.82z M44.52,31.78c4.65,0,8.67,0.37,12.59-0.11
		c3.36-0.41,6.98-1.18,9.82-2.88c6.92-4.14,7.41-13.34,0.86-18c-2.96-2.1-6.95-3.25-10.62-3.78c-4.39-0.64-8.96-0.04-13.44-0.2
		c-2.5-0.09-3.18,0.83-3.16,3.2c0.09,12.81,0,25.61,0.13,38.42c0.01,1.05,1.24,2.08,1.9,3.12c0.64-1.06,1.79-2.1,1.83-3.18
		C44.63,42.97,44.52,37.57,44.52,31.78z M355.44,26.7c-4.59-6.08-8.75-11.76-13.13-17.27c-0.89-1.12-2.61-1.6-3.95-2.38
		c-0.24,0.35-0.47,0.7-0.71,1.05c4.34,5.83,8.56,11.76,13.09,17.44c1.79,2.25,1.72,3.75,0.01,5.99
		c-4.77,6.26-9.27,12.73-13.87,19.12c0.3,0.35,0.61,0.7,0.91,1.05c1.33-0.92,2.98-1.58,3.92-2.79c4.51-5.78,8.82-11.71,13.38-17.82
		c4.95,6.4,9.59,12.34,14.15,18.34c1.31,1.73,2.67,2.78,5.24,1.46c-5.67-7.48-11.23-14.82-16.81-22.19
		c5.13-7.09,10.11-13.97,15.08-20.85c-0.3-0.35-0.59-0.69-0.89-1.04c-1.29,0.9-2.92,1.56-3.83,2.74
		C363.84,15.03,359.85,20.66,355.44,26.7z M247.28,28.69c-7.83,0-15.52,0-23.27,0c0-5.98,0-11.67,0-17.63c10.86,0,21.42,0,31.96,0
		c1.05-2.57,0.09-3.32-2.24-3.3c-6.86,0.05-13.72,0.02-20.57,0.02c-4.32,0-8.65,0-13.04,0c0,14.91,0,29.35,0,44.04
		c1.44-0.16,2.48-0.28,3.83-0.43c0-6.62,0-12.98,0-19.61c1.56,0,2.78,0,4.01,0c5.74,0,11.47-0.03,17.21,0.02
		C247.08,31.81,248.44,31.54,247.28,28.69z M263.34,48.04c0-13.76,0-26.89,0-40.27c-1.4,0.12-2.46,0.21-3.54,0.3
		c0,14.39,0,28.5,0,42.78c9.49,0,18.77,0,28.04,0c0.17-0.39,0.33-0.78,0.5-1.18c-1.06-0.55-2.1-1.55-3.17-1.57
		C278.09,47.97,271.01,48.04,263.34,48.04z M92.34,51.1c0-14.07,0-28.04,0-42.46c5.18,0,9.91,0,15.11,0
		c-1.98-1.87-22.08-2.73-31.79-1.75c-0.73,0.07-1.41,0.64-2.11,0.98c0.09,0.35,0.19,0.7,0.28,1.05c4.78,0,9.56,0,14.74,0
		c0,1.79,0,3.11,0,4.43c0,11.71,0.03,23.41-0.02,35.12C88.54,50.71,88.93,52.19,92.34,51.1z M117.38,51.4c0-15,0-29.58,0-44.24
		c-1.35,0-2.4,0-3.53,0c0,14.84,0,29.44,0,44.24C115.12,51.4,116.17,51.4,117.38,51.4z"/>
	<path d="M20.96,0c-1.74,2.29-3.33,4.82-7.41,4.14c1.11-1.57,2.01-2.86,2.91-4.14C17.96,0,19.46,0,20.96,0z"/>
	<path d="M331.59,44.7c-5.17,4.93-11.34,7.08-18.03,7.71c-3.57,0.34-7.29,0.38-10.81-0.19c-8.91-1.43-14.37-7.9-15.29-17.55
		c-0.23-2.45-0.31-4.92-0.38-7.38c-0.07-2.44-0.72-4.45-1.96-6.75c-1.55-2.9-1.42-6.82-1.41-10.29c0-1,1.96-2.59,3.25-2.86
		c3.14-0.65,6.45-1.18,9.62-0.89c11.89,1.1,23.76,2.47,35.62,3.91c2.46,0.3,5.17,1.1,3.64,4.83c-5.31-1.26-10.52-3.02-15.87-3.64
		c-6.14-0.7-12.45-0.96-18.58-0.37c-9.37,0.89-13.08,6.62-10.94,16.48c7.22,0,14.61,0,22,0c0.01,0.59,0.02,1.19,0.04,1.78
		c-7.37,0-14.74,0-21.94,0c-1.54,10.83,5.8,19.56,16.44,20.8c7.45,0.86,14.35-0.79,20.87-4.3c0.98-0.53,1.97-1.04,2.96-1.54
		C330.89,44.43,331.03,44.53,331.59,44.7z"/>
	<path d="M32.23,29.34c0,5.66-0.13,11.33,0.05,16.98c0.09,2.81-1.27,4.5-3.72,4.56c-8.06,0.21-16.13,0.21-24.19-0.04
		c-2.5-0.08-3.66-1.95-3.63-4.68c0.11-11.32,0.11-22.64,0-33.96c-0.03-2.94,1.4-4.67,4.04-4.73c7.69-0.19,15.39-0.2,23.08,0.09
		c3.09,0.12,4.65,2.05,4.45,5.54C32,18.5,32.23,23.93,32.23,29.34z M4.97,29.08c0,5.05,0.12,10.09-0.04,15.13
		c-0.1,3.28,1.45,4.91,4.55,5.01c4.85,0.16,9.7,0.18,14.55,0.05c2.81-0.07,4.2-1.71,4.18-4.58c-0.04-10.34-0.04-20.67,0-31.01
		c0.01-2.88-1.4-4.48-4.2-4.57C19.29,8.97,14.55,8.86,9.83,9.1c-3.28,0.17-5.09,1.95-4.92,5.59C5.14,19.48,4.97,24.28,4.97,29.08z"
		/>
	<path d="M166.61,50.99c4.27-10.96,8.45-21.72,12.64-32.48c1.3-3.33,2.49-6.7,4-9.93c0.38-0.82,1.79-1.55,2.77-1.62
		c0.83-0.05,2.21,0.74,2.51,1.48c5.6,14.05,11.08,28.15,16.57,42.24c0.04,0.09-0.07,0.23-0.14,0.48c-2.2,0.95-3.55,0.34-4.42-2.04
		c-1.25-3.47-2.87-6.81-4.12-10.28c-0.68-1.9-1.64-2.68-3.77-2.62c-5.47,0.16-10.94,0.05-16.55,0.05c-1.6,4.29-3.23,8.41-4.64,12.59
		C170.7,51.17,169.58,52.26,166.61,50.99z M194.37,33.87c-2.84-7.42-5.57-14.54-8.68-22.69c-3.17,8.18-5.93,15.3-8.8,22.69
		C182.95,33.87,188.41,33.87,194.37,33.87z"/>
	<path d="M157.9,20.82c-1.68,0-2.77,0-4.35,0c0-2.47-0.11-4.78,0.03-7.07c0.18-2.93-1.23-4.52-4.04-4.62
		c-4.73-0.17-9.47-0.28-14.19-0.03c-3.21,0.17-5.14,1.82-5.07,5.5c0.16,9.72,0.15,19.45,0.01,29.17c-0.05,3.36,1.3,5.26,4.62,5.4
		c4.85,0.2,9.71,0.24,14.55,0.12c2.77-0.07,4.3-1.59,4.12-4.56c-0.13-2.19-0.03-4.4-0.03-6.93c1.5,0,2.75,0,4.34,0
		c0,3.14,0.4,6.27-0.17,9.22c-0.29,1.49-2.3,3.71-3.61,3.77c-8.05,0.35-16.13,0.3-24.19,0.09c-2.31-0.06-3.53-1.65-3.49-4.31
		c0.13-11.45,0.13-22.9,0-34.35c-0.03-2.78,1.25-4.56,3.68-4.63c7.93-0.21,15.88-0.2,23.8,0.12c2.72,0.11,4.32,2.04,4.04,5.15
		C157.72,15.41,157.9,17.99,157.9,20.82z"/>
	<path d="M44.52,31.78c0,5.79,0.1,11.19-0.09,16.58c-0.04,1.08-1.19,2.12-1.83,3.18c-0.66-1.04-1.89-2.07-1.9-3.12
		c-0.13-12.81-0.04-25.61-0.13-38.42c-0.02-2.37,0.66-3.29,3.16-3.2c4.48,0.17,9.04-0.43,13.44,0.2c3.68,0.53,7.67,1.68,10.62,3.78
		c6.55,4.65,6.06,13.86-0.86,18c-2.84,1.7-6.46,2.47-9.82,2.88C53.2,32.15,49.17,31.78,44.52,31.78z M44.78,8.68
		c0,7.34,0,14.02,0,20.91c4.34,0,8.43,0.12,12.51-0.03c5.97-0.22,9.35-3.64,10.02-9.82c0.51-4.63-3.02-9.3-8.36-10.14
		C54.45,8.9,49.83,8.98,44.78,8.68z"/>
	<path d="M355.44,26.7c4.41-6.04,8.41-11.66,12.6-17.14c0.91-1.19,2.53-1.84,3.83-2.74c0.3,0.35,0.59,0.69,0.89,1.04
		c-4.98,6.88-9.95,13.76-15.08,20.85c5.58,7.36,11.14,14.7,16.81,22.19c-2.56,1.32-3.92,0.27-5.24-1.46
		c-4.56-6-9.2-11.94-14.15-18.34c-4.55,6.11-8.87,12.04-13.38,17.82c-0.94,1.21-2.6,1.87-3.92,2.79c-0.3-0.35-0.61-0.7-0.91-1.05
		c4.6-6.39,9.1-12.86,13.87-19.12c1.71-2.25,1.78-3.74-0.01-5.99c-4.53-5.69-8.75-11.61-13.09-17.44c0.24-0.35,0.47-0.7,0.71-1.05
		c1.34,0.78,3.06,1.25,3.95,2.38C346.69,14.93,350.85,20.61,355.44,26.7z"/>
	<path d="M247.28,28.69c1.16,2.86-0.19,3.12-2.12,3.1c-5.74-0.05-11.47-0.02-17.21-0.02c-1.23,0-2.45,0-4.01,0
		c0,6.63,0,12.99,0,19.61c-1.34,0.15-2.39,0.27-3.83,0.43c0-14.68,0-29.12,0-44.04c4.4,0,8.72,0,13.04,0
		c6.86,0,13.72,0.04,20.57-0.02c2.32-0.02,3.29,0.73,2.24,3.3c-10.54,0-21.1,0-31.96,0c0,5.95,0,11.65,0,17.63
		C231.76,28.69,239.44,28.69,247.28,28.69z"/>
	<path d="M263.34,48.04c7.67,0,14.76-0.07,21.83,0.07c1.07,0.02,2.11,1.02,3.17,1.57c-0.17,0.39-0.33,0.78-0.5,1.18
		c-9.27,0-18.55,0-28.04,0c0-14.28,0-28.4,0-42.78c1.08-0.09,2.14-0.18,3.54-0.3C263.34,21.15,263.34,34.28,263.34,48.04z"/>
	<path d="M92.34,51.1c-3.41,1.09-3.8-0.38-3.79-2.62c0.05-11.71,0.02-23.41,0.02-35.12c0-1.32,0-2.65,0-4.43c-5.18,0-9.96,0-14.74,0
		c-0.09-0.35-0.19-0.7-0.28-1.05c0.7-0.34,1.38-0.9,2.11-0.98c9.71-0.98,29.81-0.12,31.79,1.75c-5.2,0-9.93,0-15.11,0
		C92.34,23.06,92.34,37.03,92.34,51.1z"/>
	<path d="M117.38,51.4c-1.21,0-2.26,0-3.53,0c0-14.8,0-29.4,0-44.24c1.14,0,2.18,0,3.53,0C117.38,21.81,117.38,36.4,117.38,51.4z"/>
	<path class="st0" d="M4.97,29.08c0-4.8,0.17-9.61-0.06-14.4C4.74,11.05,6.55,9.26,9.83,9.1c4.72-0.24,9.46-0.13,14.18,0.03
		c2.8,0.09,4.21,1.7,4.2,4.57c-0.04,10.34-0.04,20.67,0,31.01c0.01,2.87-1.38,4.5-4.18,4.58c-4.85,0.13-9.71,0.1-14.55-0.05
		c-3.1-0.1-4.65-1.73-4.55-5.01C5.09,39.18,4.97,34.13,4.97,29.08z"/>
	<path class="st0" d="M194.37,33.87c-5.96,0-11.42,0-17.48,0c2.86-7.38,5.63-14.51,8.8-22.69C188.8,19.33,191.53,26.46,194.37,33.87
		z"/>
	<path class="st0" d="M44.78,8.68c5.05,0.3,9.67,0.22,14.17,0.92c5.34,0.84,8.87,5.51,8.36,10.14c-0.68,6.19-4.06,9.6-10.02,9.82
		c-4.08,0.15-8.17,0.03-12.51,0.03C44.78,22.7,44.78,16.02,44.78,8.68z"/>
</g>
</svg>
